<svg width="28" height="33" viewBox="0 0 28 33" fill="none" xmlns="http://www.w3.org/2000/svg">
<g clip-path="url(#clip0_649_16)">
<path fill-rule="evenodd" clip-rule="evenodd" d="M6.15097 27.0961C7.07675 27.0961 7.94865 26.8654 8.71234 26.4584C8.731 29.4545 11.1655 31.8775 14.1659 31.8775C17.159 31.8775 19.5889 29.4664 19.6193 26.4806C20.3729 26.8738 21.2299 27.0961 22.1387 27.0961C25.1507 27.0961 27.5924 24.6544 27.5924 21.6424V10.735C27.5924 7.72302 25.1507 5.28131 22.1387 5.28131C21.2299 5.28131 20.3729 5.50363 19.6193 5.89685C19.5888 2.91104 17.159 0.5 14.1659 0.5C11.1655 0.5 8.73101 2.92297 8.71234 5.919C7.94865 5.51199 7.07675 5.28131 6.15097 5.28131C3.13897 5.28131 0.697266 7.72301 0.697266 10.735V21.6424C0.697266 24.6544 3.13897 27.0961 6.15097 27.0961Z" fill="black"/>
</g>
<defs>
<clipPath id="clip0_649_16">
<rect width="28" height="32" fill="white" transform="translate(0 0.5)"/>
</clipPath>
</defs>
</svg>
