<svg width="28" height="30" viewBox="0 0 28 30" fill="none" xmlns="http://www.w3.org/2000/svg">
<path fill-rule="evenodd" clip-rule="evenodd" d="M2.22605 10.8142C-0.189936 13.2302 -0.189933 17.1473 2.22606 19.5632L3.26271 20.5999V24.4955C3.26271 25.4066 4.00133 26.1452 4.91245 26.1452H8.80805L9.7966 27.1338C12.2126 29.5498 16.1297 29.5498 18.5457 27.1338L19.5342 26.1452H23.4771C24.3882 26.1452 25.1268 25.4066 25.1268 24.4955V20.5527L26.1162 19.5632C28.5322 17.1473 28.5322 13.2302 26.1162 10.8142L25.1268 9.82476V5.9309C25.1268 5.01977 24.3882 4.28116 23.4771 4.28116H19.5832L18.5457 3.24363C16.1297 0.827643 12.2126 0.827645 9.79659 3.24363L8.75907 4.28116H4.91245C4.00133 4.28116 3.26271 5.01977 3.26271 5.9309V9.77751L2.22605 10.8142Z" fill="black"/>
</svg>
