<svg width="29" height="28" viewBox="0 0 29 28" fill="none" xmlns="http://www.w3.org/2000/svg">
<g clip-path="url(#clip0_649_14)">
<path fill-rule="evenodd" clip-rule="evenodd" d="M0.983908 10.8173C-0.327968 12.6794 -0.32797 15.6984 0.983906 17.5605L6.79255 25.8054C8.10443 27.6675 10.2314 27.6675 11.5433 25.8054L14.0974 22.1801L16.6515 25.8054C17.9634 27.6675 20.0903 27.6675 21.4022 25.8054L27.2109 17.5605C28.5227 15.6984 28.5227 12.6794 27.2109 10.8173L21.4022 2.57236C20.0903 0.710257 17.9634 0.710254 16.6515 2.57236L14.0974 6.1977L11.5433 2.57236C10.2314 0.710257 8.10443 0.710254 6.79255 2.57236L0.983908 10.8173Z" fill="black"/>
</g>
<defs>
<clipPath id="clip0_649_14">
<rect width="29" height="27" fill="white" transform="translate(0 0.5)"/>
</clipPath>
</defs>
</svg>
