<svg width="32" height="33" viewBox="0 0 32 33" fill="none" xmlns="http://www.w3.org/2000/svg">
<g clip-path="url(#clip0_649_20)">
<path d="M12.8492 2.821C13.844 0.132581 17.6464 0.132585 18.6412 2.821L20.9767 9.13261C21.2895 9.97784 21.9559 10.6442 22.8011 10.957L29.1127 13.2925C31.8012 14.2873 31.8012 18.0898 29.1127 19.0846L22.8011 21.4201C21.9559 21.7328 21.2895 22.3993 20.9767 23.2445L18.6412 29.5561C17.6464 32.2445 13.844 32.2445 12.8492 29.5561L10.5136 23.2445C10.2009 22.3993 9.53447 21.7328 8.68924 21.4201L2.37764 19.0846C-0.310778 18.0898 -0.310776 14.2873 2.37765 13.2925L8.68924 10.957C9.53447 10.6442 10.2009 9.97783 10.5136 9.1326L12.8492 2.821Z" fill="black"/>
</g>
<defs>
<clipPath id="clip0_649_20">
<rect width="32" height="32" fill="white" transform="translate(0 0.5)"/>
</clipPath>
</defs>
</svg>
