<svg width="27" height="28" viewBox="0 0 27 28" fill="none" xmlns="http://www.w3.org/2000/svg">
<g clip-path="url(#clip0_649_22)">
<path fill-rule="evenodd" clip-rule="evenodd" d="M7.9805 27.207C10.4235 27.207 12.5777 25.9703 13.8512 24.0889C15.1247 25.9703 17.2789 27.207 19.7219 27.207C23.6343 27.207 26.8059 24.0354 26.8059 20.123C26.8059 17.6388 25.5273 15.4533 23.5922 14.1887C25.5273 12.9241 26.8059 10.7386 26.8059 8.25443C26.8059 4.34203 23.6343 1.17041 19.7219 1.17041C17.2789 1.17041 15.1247 2.40707 13.8512 4.28855C12.5777 2.40707 10.4235 1.17041 7.9805 1.17041C4.06811 1.17041 0.896484 4.34203 0.896484 8.25443C0.896484 10.7386 2.17514 12.9241 4.1102 14.1887C2.17514 15.4533 0.896484 17.6388 0.896484 20.123C0.896484 24.0354 4.06811 27.207 7.9805 27.207Z" fill="black"/>
</g>
<defs>
<clipPath id="clip0_649_22">
<rect width="27" height="27" fill="white" transform="translate(0 0.5)"/>
</clipPath>
</defs>
</svg>
