<svg width="26" height="25" viewBox="0 0 26 25" fill="none" xmlns="http://www.w3.org/2000/svg">
<path d="M1.66981 5.29462C0.473864 2.69372 3.15897 0.00862736 5.75987 1.20457L11.866 4.01228C12.6837 4.38828 13.6249 4.38828 14.4426 4.01228L20.5487 1.20456C23.1496 0.00862533 25.8347 2.69372 24.6388 5.29462L21.8311 11.4008C21.4551 12.2185 21.4551 13.1596 21.8311 13.9774L24.6388 20.0835C25.8347 22.6844 23.1496 25.3695 20.5487 24.1736L14.4426 21.3658C13.6249 20.9898 12.6837 20.9898 11.866 21.3658L5.75987 24.1736C3.15896 25.3695 0.473866 22.6844 1.66981 20.0835L4.47752 13.9774C4.85352 13.1596 4.85352 12.2185 4.47752 11.4008L1.66981 5.29462Z" fill="black"/>
</svg>
