<svg width="33" height="33" viewBox="0 0 33 33" fill="none" xmlns="http://www.w3.org/2000/svg">
<g clip-path="url(#clip0_649_24)">
<path d="M13.3492 2.821C14.344 0.132581 18.1464 0.132585 19.1412 2.821L21.4767 9.13261C21.7895 9.97784 22.4559 10.6442 23.3011 10.957L29.6127 13.2925C32.3012 14.2873 32.3012 18.0898 29.6127 19.0846L23.3011 21.4201C22.4559 21.7328 21.7895 22.3993 21.4767 23.2445L19.1412 29.5561C18.1464 32.2445 14.344 32.2445 13.3492 29.5561L11.0136 23.2445C10.7009 22.3993 10.0345 21.7328 9.18924 21.4201L2.87764 19.0846C0.189222 18.0898 0.189224 14.2873 2.87765 13.2925L9.18924 10.957C10.0345 10.6442 10.7009 9.97783 11.0136 9.1326L13.3492 2.821Z" fill="#FF5770"/>
</g>
<defs>
<clipPath id="clip0_649_24">
<rect width="32" height="32" fill="white" transform="translate(0.5 0.5)"/>
</clipPath>
</defs>
</svg>
