<svg width="29" height="33" viewBox="0 0 29 33" fill="none" xmlns="http://www.w3.org/2000/svg">
<g clip-path="url(#clip0_649_18)">
<path fill-rule="evenodd" clip-rule="evenodd" d="M6.65097 27.0961C7.57675 27.0961 8.44865 26.8654 9.21234 26.4584C9.231 29.4545 11.6655 31.8775 14.6659 31.8775C17.659 31.8775 20.0889 29.4664 20.1193 26.4806C20.8729 26.8738 21.7299 27.0961 22.6387 27.0961C25.6507 27.0961 28.0924 24.6544 28.0924 21.6424V10.735C28.0924 7.72302 25.6507 5.28131 22.6387 5.28131C21.7299 5.28131 20.8729 5.50363 20.1193 5.89685C20.0888 2.91104 17.659 0.5 14.6659 0.5C11.6655 0.5 9.23101 2.92297 9.21234 5.919C8.44865 5.51199 7.57675 5.28131 6.65097 5.28131C3.63897 5.28131 1.19727 7.72301 1.19727 10.735V21.6424C1.19727 24.6544 3.63897 27.0961 6.65097 27.0961Z" fill="#8CDDFF"/>
</g>
<defs>
<clipPath id="clip0_649_18">
<rect width="28" height="32" fill="white" transform="translate(0.5 0.5)"/>
</clipPath>
</defs>
</svg>
