<svg width="30" height="31" viewBox="0 0 30 31" fill="none" xmlns="http://www.w3.org/2000/svg">
<g clip-path="url(#clip0_649_4)">
<path fill-rule="evenodd" clip-rule="evenodd" d="M1.47719 14.4143C-0.29722 17.4877 0.755791 21.4176 3.82916 23.192C5.86921 24.3698 8.28665 24.3019 10.2006 23.2242C10.1755 25.47 11.3305 27.6637 13.4141 28.8667C16.4875 30.6411 20.4174 29.5881 22.1918 26.5147L28.2837 15.9632C30.0581 12.8899 29.0051 8.95998 25.9317 7.18557C23.8916 6.00775 21.4742 6.07571 19.5603 7.15341C19.5854 4.90756 18.4304 2.71386 16.3468 1.51088C13.2734 -0.263529 9.3435 0.789484 7.56909 3.86285L1.47719 14.4143Z" fill="#F8D14B"/>
</g>
<defs>
<clipPath id="clip0_649_4">
<rect width="29" height="30" fill="white" transform="translate(0.5 0.5)"/>
</clipPath>
</defs>
</svg>
