<svg width="29" height="30" viewBox="0 0 29 30" fill="none" xmlns="http://www.w3.org/2000/svg">
<g clip-path="url(#clip0_649_12)">
<path fill-rule="evenodd" clip-rule="evenodd" d="M2.72605 10.8142C0.310064 13.2302 0.310067 17.1473 2.72606 19.5632L3.76271 20.5999V24.4955C3.76271 25.4066 4.50133 26.1452 5.41245 26.1452H9.30805L10.2966 27.1338C12.7126 29.5498 16.6297 29.5498 19.0457 27.1338L20.0342 26.1452H23.9771C24.8882 26.1452 25.6268 25.4066 25.6268 24.4955V20.5527L26.6162 19.5632C29.0322 17.1473 29.0322 13.2302 26.6162 10.8142L25.6268 9.82476V5.9309C25.6268 5.01977 24.8882 4.28116 23.9771 4.28116H20.0832L19.0457 3.24363C16.6297 0.827643 12.7126 0.827645 10.2966 3.24363L9.25907 4.28116H5.41245C4.50133 4.28116 3.76271 5.01977 3.76271 5.9309V9.77751L2.72605 10.8142Z" fill="#F9A661"/>
</g>
<defs>
<clipPath id="clip0_649_12">
<rect width="28" height="29" fill="white" transform="translate(0.5 0.5)"/>
</clipPath>
</defs>
</svg>
