<svg width="30" height="28" viewBox="0 0 30 28" fill="none" xmlns="http://www.w3.org/2000/svg">
<g clip-path="url(#clip0_649_10)">
<path fill-rule="evenodd" clip-rule="evenodd" d="M1.48391 10.8173C0.172032 12.6794 0.17203 15.6984 1.48391 17.5605L7.29255 25.8054C8.60443 27.6675 10.7314 27.6675 12.0433 25.8054L14.5974 22.1801L17.1515 25.8054C18.4634 27.6675 20.5903 27.6675 21.9022 25.8054L27.7109 17.5605C29.0227 15.6984 29.0227 12.6794 27.7109 10.8173L21.9022 2.57236C20.5903 0.710257 18.4634 0.710254 17.1515 2.57236L14.5974 6.1977L12.0433 2.57236C10.7314 0.710257 8.60443 0.710254 7.29255 2.57236L1.48391 10.8173Z" fill="#F4C7FA"/>
</g>
<defs>
<clipPath id="clip0_649_10">
<rect width="29" height="27" fill="white" transform="translate(0.5 0.5)"/>
</clipPath>
</defs>
</svg>
