<svg width="27" height="27" viewBox="0 0 27 27" fill="none" xmlns="http://www.w3.org/2000/svg">
<path fill-rule="evenodd" clip-rule="evenodd" d="M7.4805 26.207C9.9235 26.207 12.0777 24.9703 13.3512 23.0889C14.6247 24.9703 16.7789 26.207 19.2219 26.207C23.1343 26.207 26.3059 23.0354 26.3059 19.123C26.3059 16.6388 25.0273 14.4533 23.0922 13.1887C25.0273 11.9241 26.3059 9.7386 26.3059 7.25443C26.3059 3.34203 23.1343 0.17041 19.2219 0.17041C16.7789 0.17041 14.6247 1.40707 13.3512 3.28855C12.0777 1.40707 9.9235 0.17041 7.4805 0.17041C3.56811 0.17041 0.396484 3.34203 0.396484 7.25443C0.396484 9.7386 1.67514 11.9241 3.6102 13.1887C1.67514 14.4533 0.396484 16.6388 0.396484 19.123C0.396484 23.0354 3.56811 26.207 7.4805 26.207Z" fill="#B8D22F"/>
</svg>
