<svg width="26" height="26" viewBox="0 0 26 26" fill="none" xmlns="http://www.w3.org/2000/svg">
<path d="M1.66978 5.79462C0.473834 3.19372 3.15894 0.508627 5.75984 1.70457L11.866 4.51228C12.6837 4.88828 13.6249 4.88828 14.4426 4.51228L20.5487 1.70456C23.1496 0.508625 25.8347 3.19372 24.6388 5.79462L21.8311 11.9008C21.4551 12.7185 21.4551 13.6596 21.8311 14.4774L24.6388 20.5835C25.8347 23.1844 23.1496 25.8695 20.5487 24.6736L14.4426 21.8658C13.6249 21.4898 12.6837 21.4898 11.866 21.8658L5.75984 24.6736C3.15893 25.8695 0.473836 23.1844 1.66978 20.5835L4.47748 14.4774C4.85348 13.6596 4.85348 12.7185 4.47748 11.9008L1.66978 5.79462Z" fill="#3E88FB"/>
</svg>
